<mxfile host="Electron" modified="2025-09-02T23:45:51.309Z" agent="Mozilla/5.0 (Windows NT 10.0; Win64; x64) AppleWebKit/537.36 (KHTML, like Gecko) draw.io/24.0.4 Chrome/120.0.6099.109 Electron/28.1.0 Safari/537.36" etag="IRzZOinIDfoN5ZyIe0DJ" version="24.0.4" type="device">
  <diagram name="Detailed Steps" id="detailed-steps">
    <mxGraphModel dx="1674" dy="844" grid="1" gridSize="10" guides="1" tooltips="1" connect="1" arrows="1" fold="1" page="1" pageScale="1" pageWidth="1169" pageHeight="827" math="0" shadow="0">
      <root>
        <mxCell id="0" />
        <mxCell id="1" parent="0" />
        <mxCell id="title" value="🔍 ORCA Detailed Step Breakdown" style="text;html=1;strokeColor=none;fillColor=none;align=center;verticalAlign=middle;whiteSpace=wrap;rounded=0;fontSize=24;fontStyle=1;fontColor=#1f4e79;" parent="1" vertex="1">
          <mxGeometry x="300" y="20" width="569" height="40" as="geometry" />
        </mxCell>
        <mxCell id="init-title" value="🚀 Initialize Databank Steps" style="text;html=1;strokeColor=none;fillColor=none;align=center;verticalAlign=middle;whiteSpace=wrap;rounded=0;fontSize=18;fontStyle=1;fontColor=#1f4e79;" parent="1" vertex="1">
          <mxGeometry x="80" y="80" width="400" height="30" as="geometry" />
        </mxCell>
        <mxCell id="init-1" value="1️⃣ Create Directory Structure&lt;br&gt;• Create databank folder&lt;br&gt;• Create sub-component folders&lt;br&gt;• Create outputs directory" style="rounded=1;whiteSpace=wrap;html=1;fillColor=#d5e8d4;strokeColor=#82b366;fontSize=11;align=left;verticalAlign=top;" parent="1" vertex="1">
          <mxGeometry x="80" y="120" width="180" height="70" as="geometry" />
        </mxCell>
        <mxCell id="init-2" value="2️⃣ Copy Template Files&lt;br&gt;• Copy config templates&lt;br&gt;• Copy example scripts&lt;br&gt;• Set up initial structure" style="rounded=1;whiteSpace=wrap;html=1;fillColor=#d5e8d4;strokeColor=#82b366;fontSize=11;align=left;verticalAlign=top;" parent="1" vertex="1">
          <mxGeometry x="280" y="120" width="180" height="70" as="geometry" />
        </mxCell>
        <mxCell id="init-3" value="3️⃣ Copy Shared Input Data&lt;br&gt;• Landuse data&lt;br&gt;• Network files&lt;br&gt;• Component-specific inputs" style="rounded=1;whiteSpace=wrap;html=1;fillColor=#d5e8d4;strokeColor=#82b366;fontSize=11;align=left;verticalAlign=top;" parent="1" vertex="1">
          <mxGeometry x="80" y="210" width="180" height="70" as="geometry" />
        </mxCell>
        <mxCell id="init-4" value="4️⃣ Create Configuration&lt;br&gt;• Generate model config&lt;br&gt;• Initialize state file&lt;br&gt;• Set up logging" style="rounded=1;whiteSpace=wrap;html=1;fillColor=#d5e8d4;strokeColor=#82b366;fontSize=11;align=left;verticalAlign=top;" parent="1" vertex="1">
          <mxGeometry x="280" y="210" width="180" height="70" as="geometry" />
        </mxCell>
        <mxCell id="run-title" value="🏃 Run Models Steps" style="text;html=1;strokeColor=none;fillColor=none;align=center;verticalAlign=middle;whiteSpace=wrap;rounded=0;fontSize=18;fontStyle=1;fontColor=#1f4e79;" parent="1" vertex="1">
          <mxGeometry x="520" y="80" width="400" height="30" as="geometry" />
        </mxCell>
        <mxCell id="run-1" value="1️⃣ Load Configuration&lt;br&gt;• Parse YAML config&lt;br&gt;• Apply environment variables&lt;br&gt;• Apply CLI overrides" style="rounded=1;whiteSpace=wrap;html=1;fillColor=#fff2cc;strokeColor=#d6b656;fontSize=11;align=left;verticalAlign=top;" parent="1" vertex="1">
          <mxGeometry x="520" y="120" width="180" height="70" as="geometry" />
        </mxCell>
        <mxCell id="run-2" value="2️⃣ Initialize State&lt;br&gt;• Load/create state file&lt;br&gt;• Determine resume point&lt;br&gt;• Set iteration tracking" style="rounded=1;whiteSpace=wrap;html=1;fillColor=#fff2cc;strokeColor=#d6b656;fontSize=11;align=left;verticalAlign=top;" parent="1" vertex="1">
          <mxGeometry x="720" y="120" width="180" height="70" as="geometry" />
        </mxCell>
        <mxCell id="run-3" value="3️⃣ Cloud Mode Setup&lt;br&gt;• Download existing data&lt;br&gt;• Check cloud state&lt;br&gt;• Prepare sync strategy" style="rounded=1;whiteSpace=wrap;html=1;fillColor=#fff2cc;strokeColor=#d6b656;fontSize=11;align=left;verticalAlign=top;" parent="1" vertex="1">
          <mxGeometry x="520" y="210" width="180" height="70" as="geometry" />
        </mxCell>
        <mxCell id="run-4" value="4️⃣ Execute Model Steps&lt;br&gt;• Run each component&lt;br&gt;• Monitor progress&lt;br&gt;• Handle errors" style="rounded=1;whiteSpace=wrap;html=1;fillColor=#fff2cc;strokeColor=#d6b656;fontSize=11;align=left;verticalAlign=top;" parent="1" vertex="1">
          <mxGeometry x="720" y="210" width="180" height="70" as="geometry" />
        </mxCell>
        <mxCell id="step-title" value="⚙️ Individual Model Step Execution" style="text;html=1;strokeColor=none;fillColor=none;align=center;verticalAlign=middle;whiteSpace=wrap;rounded=0;fontSize=18;fontStyle=1;fontColor=#1f4e79;" parent="1" vertex="1">
          <mxGeometry x="80" y="320" width="400" height="30" as="geometry" />
        </mxCell>
        <mxCell id="step-1" value="1️⃣ Pre-execution Setup&lt;br&gt;• Set environment&lt;br&gt;• Prepare command&lt;br&gt;• Check dependencies" style="rounded=1;whiteSpace=wrap;html=1;fillColor=#dae8fc;strokeColor=#6c8ebf;fontSize=11;align=left;verticalAlign=top;" parent="1" vertex="1">
          <mxGeometry x="80" y="360" width="130" height="60" as="geometry" />
        </mxCell>
        <mxCell id="step-2" value="2️⃣ Execute Command&lt;br&gt;• Run model script&lt;br&gt;• Capture output&lt;br&gt;• Monitor resources" style="rounded=1;whiteSpace=wrap;html=1;fillColor=#dae8fc;strokeColor=#6c8ebf;fontSize=11;align=left;verticalAlign=top;" parent="1" vertex="1">
          <mxGeometry x="230" y="360" width="130" height="60" as="geometry" />
        </mxCell>
        <mxCell id="step-3" value="3️⃣ Post-execution&lt;br&gt;• Archive outputs&lt;br&gt;• Clean temp files&lt;br&gt;• Update state" style="rounded=1;whiteSpace=wrap;html=1;fillColor=#dae8fc;strokeColor=#6c8ebf;fontSize=11;align=left;verticalAlign=top;" parent="1" vertex="1">
          <mxGeometry x="380" y="360" width="130" height="60" as="geometry" />
        </mxCell>
        <mxCell id="step-4" value="4️⃣ Cloud Sync&lt;br&gt;• Upload component&lt;br&gt;• Upload outputs&lt;br&gt;• Update cloud state" style="rounded=1;whiteSpace=wrap;html=1;fillColor=#dae8fc;strokeColor=#6c8ebf;fontSize=11;align=left;verticalAlign=top;" parent="1" vertex="1">
          <mxGeometry x="80" y="440" width="130" height="60" as="geometry" />
        </mxCell>
        <mxCell id="step-5" value="5️⃣ Error Handling&lt;br&gt;• Capture errors&lt;br&gt;• Create error dump&lt;br&gt;• Log failure details" style="rounded=1;whiteSpace=wrap;html=1;fillColor=#dae8fc;strokeColor=#6c8ebf;fontSize=11;align=left;verticalAlign=top;" parent="1" vertex="1">
          <mxGeometry x="230" y="440" width="130" height="60" as="geometry" />
        </mxCell>
        <mxCell id="step-6" value="6️⃣ Performance Log&lt;br&gt;• Record runtime&lt;br&gt;• Log memory usage&lt;br&gt;• Export metrics" style="rounded=1;whiteSpace=wrap;html=1;fillColor=#dae8fc;strokeColor=#6c8ebf;fontSize=11;align=left;verticalAlign=top;" parent="1" vertex="1">
          <mxGeometry x="380" y="440" width="130" height="60" as="geometry" />
        </mxCell>
        <mxCell id="sync-title" value="☁️ Cloud Synchronization Details" style="text;html=1;strokeColor=none;fillColor=none;align=center;verticalAlign=middle;whiteSpace=wrap;rounded=0;fontSize=18;fontStyle=1;fontColor=#1f4e79;" parent="1" vertex="1">
          <mxGeometry x="550" y="320" width="400" height="30" as="geometry" />
        </mxCell>
        <mxCell id="sync-1" value="📤 Upload Process&lt;br&gt;• Zip component folder&lt;br&gt;• Upload to ADLS&lt;br&gt;• Handle conflicts&lt;br&gt;• Update timestamps" style="rounded=1;whiteSpace=wrap;html=1;fillColor=#e1d5e7;strokeColor=#9673a6;fontSize=11;align=left;verticalAlign=top;" parent="1" vertex="1">
          <mxGeometry x="550" y="360" width="150" height="80" as="geometry" />
        </mxCell>
        <mxCell id="sync-2" value="📥 Download Process&lt;br&gt;• List cloud contents&lt;br&gt;• Download archives&lt;br&gt;• Extract to folders&lt;br&gt;• Preserve local files" style="rounded=1;whiteSpace=wrap;html=1;fillColor=#e1d5e7;strokeColor=#9673a6;fontSize=11;align=left;verticalAlign=top;" parent="1" vertex="1">
          <mxGeometry x="720" y="360" width="150" height="80" as="geometry" />
        </mxCell>
        <mxCell id="sync-3" value="🔍 List Operation&lt;br&gt;• Show cloud files&lt;br&gt;• Display timestamps&lt;br&gt;• Check file sizes&lt;br&gt;• Validate structure" style="rounded=1;whiteSpace=wrap;html=1;fillColor=#e1d5e7;strokeColor=#9673a6;fontSize=11;align=left;verticalAlign=top;" parent="1" vertex="1">
          <mxGeometry x="550" y="460" width="150" height="80" as="geometry" />
        </mxCell>
        <mxCell id="sync-4" value="⚠️ Conflict Resolution&lt;br&gt;• Move to backup folder&lt;br&gt;• Add timestamps&lt;br&gt;• Log conflicts&lt;br&gt;• Preserve data" style="rounded=1;whiteSpace=wrap;html=1;fillColor=#e1d5e7;strokeColor=#9673a6;fontSize=11;align=left;verticalAlign=top;" parent="1" vertex="1">
          <mxGeometry x="720" y="460" width="150" height="80" as="geometry" />
        </mxCell>
        <mxCell id="state-title" value="📊 State Management Details" style="text;html=1;strokeColor=none;fillColor=none;align=center;verticalAlign=middle;whiteSpace=wrap;rounded=0;fontSize=18;fontStyle=1;fontColor=#1f4e79;" parent="1" vertex="1">
          <mxGeometry x="80" y="540" width="400" height="30" as="geometry" />
        </mxCell>
        <mxCell id="state-1" value="🏃 Running State&lt;br&gt;• Current iteration&lt;br&gt;• Active step&lt;br&gt;• Start timestamp&lt;br&gt;• Progress tracking" style="rounded=1;whiteSpace=wrap;html=1;fillColor=#f8cecc;strokeColor=#b85450;fontSize=11;align=left;verticalAlign=top;" parent="1" vertex="1">
          <mxGeometry x="80" y="580" width="130" height="80" as="geometry" />
        </mxCell>
        <mxCell id="state-2" value="✅ Completed State&lt;br&gt;• Finished steps&lt;br&gt;• Success timestamps&lt;br&gt;• Output locations&lt;br&gt;• Performance metrics" style="rounded=1;whiteSpace=wrap;html=1;fillColor=#d5e8d4;strokeColor=#82b366;fontSize=11;align=left;verticalAlign=top;" parent="1" vertex="1">
          <mxGeometry x="230" y="580" width="130" height="80" as="geometry" />
        </mxCell>
        <mxCell id="state-3" value="❌ Error State&lt;br&gt;• Failed step&lt;br&gt;• Error message&lt;br&gt;• Error dump location&lt;br&gt;• Recovery options" style="rounded=1;whiteSpace=wrap;html=1;fillColor=#ffe6cc;strokeColor=#d79b00;fontSize=11;align=left;verticalAlign=top;" parent="1" vertex="1">
          <mxGeometry x="380" y="580" width="130" height="80" as="geometry" />
        </mxCell>
        <mxCell id="error-title" value="🛠️ Error Recovery &amp; Debugging" style="text;html=1;strokeColor=none;fillColor=none;align=center;verticalAlign=middle;whiteSpace=wrap;rounded=0;fontSize=18;fontStyle=1;fontColor=#1f4e79;" parent="1" vertex="1">
          <mxGeometry x="550" y="580" width="400" height="30" as="geometry" />
        </mxCell>
        <mxCell id="error-1" value="🗂️ Error Dump Creation&lt;br&gt;• Component folder&lt;br&gt;• Configuration files&lt;br&gt;• Log files&lt;br&gt;• Intermediate outputs&lt;br&gt;• System information" style="rounded=1;whiteSpace=wrap;html=1;fillColor=#fff2cc;strokeColor=#d6b656;fontSize=11;align=left;verticalAlign=top;" parent="1" vertex="1">
          <mxGeometry x="550" y="620" width="150" height="100" as="geometry" />
        </mxCell>
        <mxCell id="error-2" value="🔄 Resume Options&lt;br&gt;• Continue from failed step&lt;br&gt;• Restart current iteration&lt;br&gt;• Skip problematic step&lt;br&gt;• Modify configuration&lt;br&gt;• Fix and retry" style="rounded=1;whiteSpace=wrap;html=1;fillColor=#fff2cc;strokeColor=#d6b656;fontSize=11;align=left;verticalAlign=top;" parent="1" vertex="1">
          <mxGeometry x="720" y="620" width="150" height="100" as="geometry" />
        </mxCell>
        <mxCell id="perf-title" value="📈 Performance Monitoring Details" style="text;html=1;strokeColor=none;fillColor=none;align=center;verticalAlign=middle;whiteSpace=wrap;rounded=0;fontSize=18;fontStyle=1;fontColor=#1f4e79;" parent="1" vertex="1">
          <mxGeometry x="80" y="700" width="400" height="30" as="geometry" />
        </mxCell>
        <mxCell id="perf-1" value="⏱️ Runtime Tracking&lt;br&gt;• Command start/end time&lt;br&gt;• Total execution time&lt;br&gt;• Step-by-step timing&lt;br&gt;• Iteration comparisons" style="rounded=1;whiteSpace=wrap;html=1;fillColor=#dae8fc;strokeColor=#6c8ebf;fontSize=11;align=left;verticalAlign=top;" parent="1" vertex="1">
          <mxGeometry x="80" y="740" width="150" height="80" as="geometry" />
        </mxCell>
        <mxCell id="perf-2" value="💾 Memory Monitoring&lt;br&gt;• System memory usage&lt;br&gt;• Process memory usage&lt;br&gt;• Peak memory tracking&lt;br&gt;• Memory trend analysis" style="rounded=1;whiteSpace=wrap;html=1;fillColor=#dae8fc;strokeColor=#6c8ebf;fontSize=11;align=left;verticalAlign=top;" parent="1" vertex="1">
          <mxGeometry x="250" y="740" width="150" height="80" as="geometry" />
        </mxCell>
        <mxCell id="perf-3" value="🖥️ CPU Monitoring&lt;br&gt;• CPU utilization&lt;br&gt;• Process CPU usage&lt;br&gt;• Multi-core tracking&lt;br&gt;• Resource efficiency" style="rounded=1;whiteSpace=wrap;html=1;fillColor=#dae8fc;strokeColor=#6c8ebf;fontSize=11;align=left;verticalAlign=top;" parent="1" vertex="1">
          <mxGeometry x="420" y="740" width="150" height="80" as="geometry" />
        </mxCell>
        <mxCell id="output-title" value="📦 Output Management Details" style="text;html=1;strokeColor=none;fillColor=none;align=center;verticalAlign=middle;whiteSpace=wrap;rounded=0;fontSize=18;fontStyle=1;fontColor=#1f4e79;" parent="1" vertex="1">
          <mxGeometry x="600" y="740" width="400" height="30" as="geometry" />
        </mxCell>
        <mxCell id="output-1" value="🗜️ Archive Creation&lt;br&gt;• Multiple named archives&lt;br&gt;• File pattern matching&lt;br&gt;• Compression optimization&lt;br&gt;• Iteration labeling" style="rounded=1;whiteSpace=wrap;html=1;fillColor=#e1d5e7;strokeColor=#9673a6;fontSize=11;align=left;verticalAlign=top;" parent="1" vertex="1">
          <mxGeometry x="600" y="780" width="150" height="80" as="geometry" />
        </mxCell>
        <mxCell id="output-2" value="🧹 Cleanup Process&lt;br&gt;• Remove temp files&lt;br&gt;• Pattern-based deletion&lt;br&gt;• Log file management&lt;br&gt;• Space optimization" style="rounded=1;whiteSpace=wrap;html=1;fillColor=#e1d5e7;strokeColor=#9673a6;fontSize=11;align=left;verticalAlign=top;" parent="1" vertex="1">
          <mxGeometry x="770" y="780" width="150" height="80" as="geometry" />
        </mxCell>
      </root>
    </mxGraphModel>
  </diagram>
</mxfile>
